<?xml version="1.0" encoding="utf-8"?>
<!-- Generator: Adobe Illustrator 17.1.0, SVG Export Plug-In . SVG Version: 6.00 Build 0)  -->
<!DOCTYPE svg PUBLIC "-//W3C//DTD SVG 1.1//EN" "http://www.w3.org/Graphics/SVG/1.1/DTD/svg11.dtd">
<svg version="1.1" id="Layer_1" xmlns="http://www.w3.org/2000/svg" xmlns:xlink="http://www.w3.org/1999/xlink" x="0px" y="0px"
	 viewBox="0 0 612 792" enable-background="new 0 0 612 792" xml:space="preserve">
<path fill="#333333" d="M553.5,97.4c0-53.9-40.4-97.4-91.1-97.4c-50.7,0-91.1,43.6-91.1,97.4s41.2,97.4,91.1,97.4
	C513.1,194.8,553.5,151.3,553.5,97.4z"/>
<path fill="#333333" d="M27.6,580.5l11.9,90.3h217.8L249.4,537l92.7,64.9l15.8,189.3h81.6l7.9-245.5l-109.3-68.9
	c0,0-15.8-17.4-7.9-30.1c7.9-12.7,36.4-77.6,36.4-77.6l19.8,68.9l189.3,17.4l7.9-90.3l-112.5-4c0,0,7.9-133.8-7.9-137.8
	c-15.8-4-92.7-47.5-104.5-68.9l-181.4,8.7L108.4,301l56.2,42.8l76.8-111.7l40.4,17.4L181.3,421.3c0,0-15.8,142.6-7.9,163.9
	C181.3,606.7,52.2,541.7,27.6,580.5z"/>
</svg>
